<svg width="45" height="45" viewBox="0 0 45 45" fill="none" xmlns="http://www.w3.org/2000/svg">
<rect width="45" height="45" rx="12" fill="#BE3337"/>
<path d="M11.25 16.875L20.4355 23.3049C21.1794 23.8255 21.5513 24.0859 21.9558 24.1867C22.3131 24.2758 22.6869 24.2758 23.0442 24.1867C23.4487 24.0859 23.8206 23.8255 24.5645 23.3049L33.75 16.875M16.65 31.5H28.35C30.2402 31.5 31.1853 31.5 31.9072 31.1321C32.5423 30.8086 33.0586 30.2923 33.3821 29.6572C33.75 28.9353 33.75 27.9902 33.75 26.1V18.9C33.75 17.0098 33.75 16.0647 33.3821 15.3428C33.0586 14.7077 32.5423 14.1914 31.9072 13.8679C31.1853 13.5 30.2402 13.5 28.35 13.5H16.65C14.7598 13.5 13.8147 13.5 13.0928 13.8679C12.4577 14.1914 11.9414 14.7077 11.6179 15.3428C11.25 16.0647 11.25 17.0098 11.25 18.9V26.1C11.25 27.9902 11.25 28.9353 11.6179 29.6572C11.9414 30.2923 12.4577 30.8086 13.0928 31.1321C13.8147 31.5 14.7598 31.5 16.65 31.5Z" stroke="white" stroke-width="2" stroke-linecap="round" stroke-linejoin="round"/>
</svg>
