<svg width="45" height="45" viewBox="0 0 45 45" fill="none" xmlns="http://www.w3.org/2000/svg">
<rect width="45" height="45" rx="12" fill="#BE3337"/>
<path d="M17.738 18.7864C18.5984 20.5784 19.7713 22.2579 21.2567 23.7433C22.7421 25.2287 24.4216 26.4016 26.2136 27.262C26.3678 27.336 26.4448 27.373 26.5423 27.4014C26.8889 27.5025 27.3145 27.4299 27.608 27.2197C27.6906 27.1606 27.7613 27.0899 27.9026 26.9486C28.3347 26.5164 28.5508 26.3004 28.7681 26.1591C29.5876 25.6263 30.644 25.6263 31.4635 26.1591C31.6808 26.3004 31.8969 26.5164 32.3291 26.9486L32.57 27.1895C33.2269 27.8465 33.5554 28.175 33.7338 28.5278C34.0887 29.2294 34.0887 30.058 33.7338 30.7596C33.5554 31.1124 33.2269 31.4408 32.57 32.0978L32.3751 32.2927C31.7204 32.9474 31.393 33.2748 30.9479 33.5248C30.4541 33.8022 29.687 34.0017 29.1206 34C28.6101 33.9985 28.2612 33.8994 27.5634 33.7014C23.8136 32.6371 20.2751 30.6289 17.3231 27.6769C14.3711 24.7249 12.3629 21.1864 11.2986 17.4366C11.1006 16.7388 11.0015 16.3899 11 15.8794C10.9983 15.313 11.1978 14.5459 11.4752 14.0521C11.7252 13.607 12.0526 13.2796 12.7073 12.6249L12.9022 12.43C13.5592 11.7731 13.8876 11.4446 14.2404 11.2662C14.942 10.9113 15.7706 10.9113 16.4722 11.2662C16.825 11.4446 17.1535 11.7731 17.8105 12.43L18.0514 12.6709C18.4836 13.1031 18.6996 13.3192 18.8409 13.5365C19.3737 14.356 19.3737 15.4124 18.8409 16.2319C18.6996 16.4492 18.4836 16.6653 18.0514 17.0974C17.9101 17.2387 17.8394 17.3094 17.7803 17.392C17.5701 17.6855 17.4975 18.1111 17.5986 18.4576C17.627 18.5552 17.664 18.6322 17.738 18.7864Z" stroke="white" stroke-width="2" stroke-linecap="round" stroke-linejoin="round"/>
</svg>
